<svg height="128" width="128" xmlns="http://www.w3.org/2000/svg">
  <rect fill="#667fff" height="104" rx="8" width="104" x="12" y="15.000002"/>
  <path d="m20.000009 15h88.000001c4.432 0 8 3.568 8 8v5h-104.000001v-5c0-4.432 3.568-8 8-8z" opacity=".8"/>
  <g fill="#fff">
    <rect height="3" rx="1" width="3" x="62.5" y="20.000002"/>
    <rect height="3" rx="1" width="3" x="67.5" y="20.000002"/>
    <rect height="3" rx="1" width="3" x="57.5" y="20.000002"/>
  </g>
  <path d="m20.000009 119h88.000001c4.432 0 8-3.568 8-8v-20h-104.000001v20c0 4.432 3.568 8 8 8z" opacity=".8"/>
  <g fill="#fff">
    <path d="m57.429688 47.376953c-.153014.0077-.299481.087571-.384766.228516l-1.189453 1.925781-2.205078.539062.007812-.017578c-.07276.01756-.14217.051126-.199219.09961-.200904.170654-.225337.472924-.054687.673828l1.46875 1.732422-.169922 2.265625c-.0053.07823.006932.15506.039063.226562.108308.240291.3925.348459.632812.240235l2.072266-.851563 2.101562.859375c.07495.03392.156361.048296.238281.041016.262577-.02344.457034-.253049.433594-.515625l-.171875-2.265625 1.46875-1.732422c.04109-.05461.071238-.116874.085938-.183594.05663-.257452-.107784-.511728-.365235-.568359l-2.183593-.535157-1.19336-1.933593c-.03991-.06604-.094113-.120247-.160156-.160157-.08457-.051169-.179677-.072959-.271484-.068359zm-6.097657 9.056641c-.153014.0077-.29948.089512-.384765.230468l-.535157.867188-1.005859.242188-.013672.005859c-.07276.01756-.142171.053078-.199219.101562-.200906.170654-.223389.470972-.052734.671875l.671875.783204-.078125 1.007812c-.0053.07823.008846.158966.041016.230469.108308.240289.392502.344552.632812.236328l.919922-.375.947266.388672c.07495.03392.158314.048305.240234.041015.262578-.02344.455081-.254999.431641-.517578l-.076172-1.007812.671875-.783203c.04915-.06016.082366-.130818.097656-.207032.05201-.258461-.11467-.510491-.373047-.5625l-.974609-.238281-.527344-.884766c-.03991-.06604-.09606-.122197-.162109-.162109-.08457-.05117-.179677-.072959-.271485-.068359zm6.769531 4.130859c-.153013.0077-.299479.089516-.384765.230469l-.693359 1.123047-1.289063.308593-.003906.00586c-.07276.01756-.140208.053077-.197266.101562-.200905.170653-.225341.472926-.054687.673828l.861328 1.00586-.103516 1.326172c-.0053.07823.010799.155059.042969.226562.108308.240289.390547.348459.630859.240235l1.203125-.494141 1.230469.503906c.07495.03392.156352.046353.238281.039063.262577-.02344.457034-.253047.433594-.515625l-.101563-1.326172.861329-1.00586c.05428-.06318.089846-.140896.105468-.222656.04958-.258881-.120026-.509022-.378906-.558594l-1.269531-.308593-.699219-1.123047c-.03992-.06604-.094109-.120245-.160156-.160156-.08457-.05117-.179676-.074913-.271485-.070313z" opacity=".7"/>
    <path d="m64.742479 43.566404c-.160487-.0011-.311808.07846-.401041.211807-.146624.219052-.08711.514834.131944.661457 3.891858 2.833314 6.190917 7.359663 6.185762 12.173607-.0088 8.304752-6.747326 15.029627-15.052078 15.020827h-.06424c-.139985.01512-.266926.09154-.345486.208333-.147127.218717-.08851.514331.130208.661459 2.735426 1.990294 6.032092 3.062836 9.414927 3.062498 8.83562-.000914 15.997411-7.164374 15.996522-15.999994-.000914-8.83562-7.164374-15.997409-15.999994-15.996522z"/>
    <path d="m63.612154 96.5c-.898365 0-1.532066.546242-1.532066 1.391762 0 .863138.633701 1.409508 1.532066 1.409508s1.533682-.54637 1.533682-1.409508c0-.84552-.635317-1.391762-1.533682-1.391762zm23.869621 1.356284-.317704 2.677086-1.338543.0887v2.04328h1.180499v3.38184c0 2.06096.897616 3.4528 3.081875 3.4528.863135 0 1.532086-.17703 1.990076-.35317l-.422527-1.90139c-.228995.088-.527738.12257-.809578.12257-.651754 0-1.10954-.36985-1.10954-1.35629v-3.34636h2.061035v-2.13199h-2.061035v-2.677084zm-38.013027 2.465826c-1.37397 0-2.625526.44041-3.770501 1.145l.951495 1.7611c.880749-.49322 1.585438-.73863 2.290038-.73863.898365 0 1.268083.42281 1.338544 1.14502-3.452539.3523-4.880041 1.35648-4.880041 3.20605 0 1.46205 1.004778 2.65935 2.607743 2.65935.986439 0 1.779088-.44004 2.501302-1.0918h.07096l.193525.88053h2.219079v-4.96711c0-2.74794-1.267425-3.99951-3.522144-3.99951zm10.621261 0c-.880749 0-1.849421.547-2.483561 1.7272h-.07096l-.193523-1.51594h-2.219081v8.75536h2.712567v-5.00259c.45799-1.16259 1.249622-1.5853 1.901377-1.5853.38753 0 .581207.0344.898276.10483l.511227-2.30778c-.24661-.1233-.545486-.17578-1.05632-.17578zm10.77931 0c-1.373969 0-2.623913.44041-3.768888 1.145l.951494 1.7611c.880749-.49322 1.58544-.73863 2.290039-.73863.898366 0 1.268085.42281 1.338545 1.14502-3.45254.3523-4.880042 1.35648-4.880042 3.20605 0 1.46205 1.004778 2.65935 2.607743 2.65935.98644 0 1.779087-.44004 2.501302-1.0918h.07096l.193525.88053h2.219079v-4.96711c0-2.74794-1.269036-3.99951-3.523755-3.99951zm10.938966 0c-1.197819 0-2.077438.59847-2.799653 1.30307h-.07096l-.193523-1.09181h-2.219081v8.75536h2.712567v-5.86539c.546065-.49322.915545-.79345 1.532069-.79345.704599 0 1.022454.36985 1.022454 1.58528v5.07356h2.730306v-5.42512c0-2.18426-.811761-3.5415-2.714179-3.5415zm-45.886244.21126 2.923831 8.75536h3.152834l2.819007-8.75536h-2.607743l-1.07406 4.03499c-.21138.86312-.440276 1.77884-.669271 2.69482h-.07096c-.211379-.91598-.440152-1.8317-.651533-2.69482l-1.091799-4.03499zm26.333831 0v8.75536h2.712567v-8.75536zm-11.977547 4.77361v1.39175c-.42276.42276-.792479.68702-1.338544.68702-.59891 0-.933754-.24553-.933754-.75635 0-.61654.528414-1.09342 2.272298-1.32242zm21.402185 0v1.39175c-.42276.42276-.79248.68702-1.338545.68702-.59891 0-.933754-.24553-.933754-.75635 0-.61654.528414-1.09342 2.272299-1.32242z" stroke-width=".825703"/>
  </g>
</svg>
