<svg height="128" width="128" xmlns="http://www.w3.org/2000/svg">
  <rect fill="#660bff" height="104" rx="8" width="104" x="12" y="15.000002"/>
  <path d="m20.000009 15h88.000001c4.432 0 8 3.568 8 8v5h-104.000001v-5c0-4.432 3.568-8 8-8z" opacity=".8"/>
  <g fill="#fff">
    <rect height="3" rx="1" width="3" x="62.5" y="20.000002"/>
    <rect height="3" rx="1" width="3" x="67.5" y="20.000002"/>
    <rect height="3" rx="1" width="3" x="57.5" y="20.000002"/>
  </g>
  <path d="m20.000009 119h88.000001c4.432 0 8-3.568 8-8v-20h-104.000001v20c0 4.432 3.568 8 8 8z" opacity=".8"/>
  <path d="m64.707031 41.566406c-.180548-.001323-.350784.088265-.451172.238282-.164951.246434-.097996.579189.148438.74414 4.378341 3.187479 6.964784 8.279624 6.958984 13.695313-.009925 9.342849-7.590744 16.908337-16.933593 16.898437h-.072266c-.157484.017015-.300292.102982-.388672.234375-.165518.246056-.099572.578622.146484.744141 3.077355 2.239081 6.786106 3.445691 10.591797 3.445312 9.940076-.001039 17.997094-8.059924 17.996094-18-.00104-9.940076-8.059924-17.997093-18-17.996094zm-8.226562 4.28711c-.172141.008636-.337648.099242-.433594.257812l-1.337891 2.166016-2.480468.605468.007812-.019531c-.081861.019756-.158476.058741-.222656.113281-.226018.191986-.254486.531797-.0625.757813l1.652344 1.947266-.191407 2.548828c-.00595.088005.008722.175419.044922.255859.121846.270327.440588.391283.710938.269531l2.332031-.957031 2.363281.966797c.084318.03816.177372.055075.269531.046875.2954-.026373.514652-.286632.488282-.582031l-.19336-2.548828 1.652344-1.947266c.04623-.061443.079163-.131971.095703-.207031.063712-.289633-.120523-.576915-.410156-.640625l-2.457031-.601563-1.34375-2.173828c-.0449-.074299-.105388-.136741-.179688-.18164-.095142-.057568-.201403-.081354-.304687-.076172zm-6.859375 10.189453c-.172141.008636-.337648.099242-.433594.257812l-.601562.976563-1.132813.271484-.015625.007813c-.081861.019756-.158476.058741-.222656.113281-.226019.191986-.252534.529843-.060547.755859l.755859.88086-.08789 1.134765c-.00596.088006.010675.177373.046875.257813.121847.270326.440587.38933.710937.267578l1.035156-.421875 1.066407.4375c.084319.03816.177371.053122.269531.044922.2954-.026373.512698-.286631.486328-.582032l-.085938-1.134765.75586-.880859c.055298-.067683.092175-.146682.109375-.232422.058513-.290768-.129249-.574303-.419922-.632813l-1.095703-.267578-.59375-.996094c-.044901-.074299-.107341-.13674-.181641-.18164-.095142-.057568-.201403-.081354-.304687-.076172zm7.615234 4.646484c-.17214.008637-.337647.101196-.433594.259766l-.779296 1.261719-1.451172.347656-.003907.007812c-.081861.019756-.158466.058741-.222656.113282-.226019.191985-.252534.531796-.060547.757812l.96875 1.132812-.115234 1.490235c-.00595.088006.010675.175419.046875.255859.121846.270326.440587.391284.710937.269532l1.353516-.554688 1.382812.566406c.084319.03816.177362.053122.269532.044922.295399-.026374.512698-.286631.486328-.582031l-.113281-1.490235.96875-1.132812c.061061-.071085.10156-.15802.11914-.25.055771-.291241-.134541-.573136-.425781-.628906l-1.429688-.347656-.785156-1.261719c-.044901-.074299-.10734-.136741-.18164-.181641-.095143-.057567-.201404-.083307-.304688-.078125z" fill="#fff" stroke-width=".094528"/>
  <path d="m63.612154 96.5c-.898365 0-1.532066.546242-1.532066 1.391762 0 .863138.633701 1.409508 1.532066 1.409508s1.533682-.54637 1.533682-1.409508c0-.84552-.635317-1.391762-1.533682-1.391762zm23.869621 1.356284-.317704 2.677086-1.338543.0887v2.04328h1.180499v3.38184c0 2.06096.897616 3.4528 3.081875 3.4528.863135 0 1.532086-.17703 1.990076-.35317l-.422527-1.90139c-.228995.088-.527738.12257-.809578.12257-.651754 0-1.10954-.36985-1.10954-1.35629v-3.34636h2.061035v-2.13199h-2.061035v-2.677084zm-38.013027 2.465826c-1.37397 0-2.625526.44041-3.770501 1.145l.951495 1.7611c.880749-.49322 1.585438-.73863 2.290038-.73863.898365 0 1.268083.42281 1.338544 1.14502-3.452539.3523-4.880041 1.35648-4.880041 3.20605 0 1.46205 1.004778 2.65935 2.607743 2.65935.986439 0 1.779088-.44004 2.501302-1.0918h.07096l.193525.88053h2.219079v-4.96711c0-2.74794-1.267425-3.99951-3.522144-3.99951zm10.621261 0c-.880749 0-1.849421.547-2.483561 1.7272h-.07096l-.193523-1.51594h-2.219081v8.75536h2.712567v-5.00259c.45799-1.16259 1.249622-1.5853 1.901377-1.5853.38753 0 .581207.0344.898276.10483l.511227-2.30778c-.24661-.1233-.545486-.17578-1.05632-.17578zm10.77931 0c-1.373969 0-2.623913.44041-3.768888 1.145l.951494 1.7611c.880749-.49322 1.58544-.73863 2.290039-.73863.898366 0 1.268085.42281 1.338545 1.14502-3.45254.3523-4.880042 1.35648-4.880042 3.20605 0 1.46205 1.004778 2.65935 2.607743 2.65935.98644 0 1.779087-.44004 2.501302-1.0918h.07096l.193525.88053h2.219079v-4.96711c0-2.74794-1.269036-3.99951-3.523755-3.99951zm10.938966 0c-1.197819 0-2.077438.59847-2.799653 1.30307h-.07096l-.193523-1.09181h-2.219081v8.75536h2.712567v-5.86539c.546065-.49322.915545-.79345 1.532069-.79345.704599 0 1.022454.36985 1.022454 1.58528v5.07356h2.730306v-5.42512c0-2.18426-.811761-3.5415-2.714179-3.5415zm-45.886244.21126 2.923831 8.75536h3.152834l2.819007-8.75536h-2.607743l-1.07406 4.03499c-.21138.86312-.440276 1.77884-.669271 2.69482h-.07096c-.211379-.91598-.440152-1.8317-.651533-2.69482l-1.091799-4.03499zm26.333831 0v8.75536h2.712567v-8.75536zm-11.977547 4.77361v1.39175c-.42276.42276-.792479.68702-1.338544.68702-.59891 0-.933754-.24553-.933754-.75635 0-.61654.528414-1.09342 2.272298-1.32242zm21.402185 0v1.39175c-.42276.42276-.79248.68702-1.338545.68702-.59891 0-.933754-.24553-.933754-.75635 0-.61654.528414-1.09342 2.272299-1.32242z" fill="#fff" stroke-width=".825703"/>
</svg>
